# xmcd CD database file generated by OrangeCD 6.4
#
# Track frame offsets:
#	150
#	16244
#	33889
#	49109
#	68974
#	87287
#	105452
#	120238
#	140868
#	157554
#	175805
#	191937
#	211398
#
# Disc length: 3134 seconds
#
# Revision: 3
# Processed by: cddbd v1.5.2PL0 Copyright (c) Steve Scherf et al.
# Submitted via: OrangeCD 6.4
#
DISCID=a70c3c0d
DTITLE=Rosanne Cash - King's Record Shop <Bonus Tracks Edition>
DYEAR=1987
DGENRE=Contemporary Country
TTITLE0=Rosie Strike Back
TTITLE1=The Way We Make A Broken Heart
TTITLE2=If You Change Your Mind
TTITLE3=The Real Me
TTITLE4=Somewhere Sometime
TTITLE5=Runaway Train
TTITLE6=Tennessee Flat Top Box
TTITLE7=I Don't Have To Crawl
TTITLE8=Green, Yellow And Red
TTITLE9=Why Don't You Quit Leaving Me Alone
TTITLE10=707
TTITLE11=Runaway Train
TTITLE12=Green, Yellow And Red
EXTD=
EXTT0=
EXTT1=
EXTT2=
EXTT3=
EXTT4=
EXTT5=
EXTT6=
EXTT7=
EXTT8=
EXTT9=
EXTT10=
EXTT11=
EXTT12=
PLAYORDER=
